<?xml version="1.0" encoding="UTF-8" standalone="no"?><svg xmlns="http://www.w3.org/2000/svg" xmlns:xlink="http://www.w3.org/1999/xlink" contentScriptType="application/ecmascript" contentStyleType="text/css" height="950.4px" preserveAspectRatio="none" style="width:856px;height:950px;" version="1.1" viewBox="0 0 856 950" width="856px" zoomAndPan="magnify"><defs><filter height="300%" id="f1b9s6n5a0l0tx" width="300%" x="-1" y="-1"><feGaussianBlur result="blurOut" stdDeviation="3.200000047683716"/><feColorMatrix in="blurOut" result="blurOut2" type="matrix" values="0 0 0 0 0 0 0 0 0 0 0 0 0 0 0 0 0 0 .4 0"/><feOffset dx="6.400000095367432" dy="6.400000095367432" in="blurOut2" result="blurOut3"/><feBlend in="SourceGraphic" in2="blurOut3" mode="normal"/></filter></defs><g><rect fill="#000000" filter="url(#f1b9s6n5a0l0tx)" height="697.8" style="stroke: #A80036; stroke-width: 1.600000023841858;" width="16" x="208.8" y="149.4875"/><rect fill="#FFFF00" filter="url(#f1b9s6n5a0l0tx)" height="157.8625" style="stroke: #A80036; stroke-width: 1.600000023841858;" width="16" x="335.2" y="234.7125"/><rect fill="#FF0000" filter="url(#f1b9s6n5a0l0tx)" height="85.225" style="stroke: #A80036; stroke-width: 1.600000023841858;" width="16" x="482.4" y="488.7875"/><rect fill="#FF0000" filter="url(#f1b9s6n5a0l0tx)" height="57.8125" style="stroke: #A80036; stroke-width: 1.600000023841858;" width="16" x="482.4" y="731.6625"/><rect fill="#0000FF" filter="url(#f1b9s6n5a0l0tx)" height="157.65" style="stroke: #A80036; stroke-width: 1.600000023841858;" width="16" x="623.2" y="574.0125"/><rect fill="#FFFFFF" filter="url(#f1b9s6n5a0l0tx)" height="771.825" style="stroke: #000000; stroke-width: 3.200000047683716;" width="817.6" x="20.8" y="88.475"/><rect fill="#FFFFFF" filter="url(#f1b9s6n5a0l0tx)" height="231.675" style="stroke: #000000; stroke-width: 3.200000047683716;" width="268.8" x="155.2" y="173.7"/><rect fill="#FFFFFF" filter="url(#f1b9s6n5a0l0tx)" height="374.7125" style="stroke: #000000; stroke-width: 3.200000047683716;" width="667.2" x="155.2" y="427.775"/><rect fill="#FFFFFF" filter="url(#f1b9s6n5a0l0tx)" height="231.675" style="stroke: #000000; stroke-width: 3.200000047683716;" width="398.4" x="408" y="513"/><line style="stroke: #A80036; stroke-width: 1.600000023841858; stroke-dasharray: 5.0,5.0;" x1="75.2" x2="75.2" y1="61.275" y2="887.5"/><line style="stroke: #A80036; stroke-width: 1.600000023841858; stroke-dasharray: 5.0,5.0;" x1="216" x2="216" y1="61.275" y2="887.5"/><line style="stroke: #A80036; stroke-width: 1.600000023841858; stroke-dasharray: 5.0,5.0;" x1="342.4" x2="342.4" y1="61.275" y2="887.5"/><line style="stroke: #A80036; stroke-width: 1.600000023841858; stroke-dasharray: 5.0,5.0;" x1="489.6" x2="489.6" y1="61.275" y2="887.5"/><line style="stroke: #A80036; stroke-width: 1.600000023841858; stroke-dasharray: 5.0,5.0;" x1="630.4" x2="630.4" y1="61.275" y2="887.5"/><rect fill="#FEFECE" filter="url(#f1b9s6n5a0l0tx)" height="48.475" style="stroke: #A80036; stroke-width: 2.400000035762787;" width="72" x="36.8" y="4.8"/><text fill="#000000" font-family="sans-serif" font-size="22.4" lengthAdjust="spacingAndGlyphs" textLength="49.6" x="48" y="36.7922">user</text><rect fill="#FEFECE" filter="url(#f1b9s6n5a0l0tx)" height="48.475" style="stroke: #A80036; stroke-width: 2.400000035762787;" width="72" x="36.8" y="885.9"/><text fill="#000000" font-family="sans-serif" font-size="22.4" lengthAdjust="spacingAndGlyphs" textLength="49.6" x="48" y="917.8922">user</text><rect fill="#FEFECE" filter="url(#f1b9s6n5a0l0tx)" height="48.475" style="stroke: #A80036; stroke-width: 2.400000035762787;" width="84.8" x="171.2" y="4.8"/><text fill="#000000" font-family="sans-serif" font-size="22.4" lengthAdjust="spacingAndGlyphs" textLength="62.4" x="182.4" y="36.7922">client</text><rect fill="#FEFECE" filter="url(#f1b9s6n5a0l0tx)" height="48.475" style="stroke: #A80036; stroke-width: 2.400000035762787;" width="84.8" x="171.2" y="885.9"/><text fill="#000000" font-family="sans-serif" font-size="22.4" lengthAdjust="spacingAndGlyphs" textLength="62.4" x="182.4" y="917.8922">client</text><rect fill="#FEFECE" filter="url(#f1b9s6n5a0l0tx)" height="48.475" style="stroke: #A80036; stroke-width: 2.400000035762787;" width="123.2" x="278.4" y="4.8"/><text fill="#000000" font-family="sans-serif" font-size="22.4" lengthAdjust="spacingAndGlyphs" textLength="100.8" x="289.6" y="36.7922">resource</text><rect fill="#FEFECE" filter="url(#f1b9s6n5a0l0tx)" height="48.475" style="stroke: #A80036; stroke-width: 2.400000035762787;" width="123.2" x="278.4" y="885.9"/><text fill="#000000" font-family="sans-serif" font-size="22.4" lengthAdjust="spacingAndGlyphs" textLength="100.8" x="289.6" y="917.8922">resource</text><rect fill="#FEFECE" filter="url(#f1b9s6n5a0l0tx)" height="48.475" style="stroke: #A80036; stroke-width: 2.400000035762787;" width="126.4" x="424" y="4.8"/><text fill="#000000" font-family="sans-serif" font-size="22.4" lengthAdjust="spacingAndGlyphs" textLength="104" x="435.2" y="36.7922">transport</text><rect fill="#FEFECE" filter="url(#f1b9s6n5a0l0tx)" height="48.475" style="stroke: #A80036; stroke-width: 2.400000035762787;" width="126.4" x="424" y="885.9"/><text fill="#000000" font-family="sans-serif" font-size="22.4" lengthAdjust="spacingAndGlyphs" textLength="104" x="435.2" y="917.8922">transport</text><rect fill="#FEFECE" filter="url(#f1b9s6n5a0l0tx)" height="48.475" style="stroke: #A80036; stroke-width: 2.400000035762787;" width="94.4" x="580.8" y="4.8"/><text fill="#000000" font-family="sans-serif" font-size="22.4" lengthAdjust="spacingAndGlyphs" textLength="72" x="592" y="36.7922">server</text><rect fill="#FEFECE" filter="url(#f1b9s6n5a0l0tx)" height="48.475" style="stroke: #A80036; stroke-width: 2.400000035762787;" width="94.4" x="580.8" y="885.9"/><text fill="#000000" font-family="sans-serif" font-size="22.4" lengthAdjust="spacingAndGlyphs" textLength="72" x="592" y="917.8922">server</text><rect fill="#000000" filter="url(#f1b9s6n5a0l0tx)" height="697.8" style="stroke: #A80036; stroke-width: 1.600000023841858;" width="16" x="208.8" y="149.4875"/><rect fill="#FFFF00" filter="url(#f1b9s6n5a0l0tx)" height="157.8625" style="stroke: #A80036; stroke-width: 1.600000023841858;" width="16" x="335.2" y="234.7125"/><rect fill="#FF0000" filter="url(#f1b9s6n5a0l0tx)" height="85.225" style="stroke: #A80036; stroke-width: 1.600000023841858;" width="16" x="482.4" y="488.7875"/><rect fill="#FF0000" filter="url(#f1b9s6n5a0l0tx)" height="57.8125" style="stroke: #A80036; stroke-width: 1.600000023841858;" width="16" x="482.4" y="731.6625"/><rect fill="#0000FF" filter="url(#f1b9s6n5a0l0tx)" height="157.65" style="stroke: #A80036; stroke-width: 1.600000023841858;" width="16" x="623.2" y="574.0125"/><path d="M20.8,88.475 L260.8,88.475 L260.8,99.675 L244.8,115.675 L20.8,115.675 L20.8,88.475 " fill="#EEEEEE" style="stroke: #000000; stroke-width: 1.600000023841858;"/><rect fill="none" height="771.825" style="stroke: #000000; stroke-width: 3.200000047683716;" width="817.6" x="20.8" y="88.475"/><text fill="#000000" font-family="sans-serif" font-size="20.8" font-weight="bold" lengthAdjust="spacingAndGlyphs" textLength="168" x="44.8" y="109.382">response time</text><polygon fill="#A80036" points="189.6,143.0875,205.6,149.4875,189.6,155.8875,196,149.4875" style="stroke: #A80036; stroke-width: 1.600000023841858;"/><line style="stroke: #A80036; stroke-width: 1.600000023841858;" x1="76" x2="199.2" y1="149.4875" y2="149.4875"/><text fill="#000000" font-family="sans-serif" font-size="20.8" lengthAdjust="spacingAndGlyphs" textLength="78.4" x="87.2" y="141.5945">request</text><path d="M155.2,173.7 L337.6,173.7 L337.6,184.9 L321.6,200.9 L155.2,200.9 L155.2,173.7 " fill="#EEEEEE" style="stroke: #000000; stroke-width: 1.600000023841858;"/><rect fill="none" height="231.675" style="stroke: #000000; stroke-width: 3.200000047683716;" width="268.8" x="155.2" y="173.7"/><text fill="#000000" font-family="sans-serif" font-size="20.8" font-weight="bold" lengthAdjust="spacingAndGlyphs" textLength="110.4" x="179.2" y="194.607">wait time</text><polygon fill="#A80036" points="316,228.3125,332,234.7125,316,241.1125,322.4,234.7125" style="stroke: #A80036; stroke-width: 1.600000023841858;"/><line style="stroke: #A80036; stroke-width: 1.600000023841858;" x1="224.8" x2="325.6" y1="234.7125" y2="234.7125"/><text fill="#000000" font-family="sans-serif" font-size="20.8" lengthAdjust="spacingAndGlyphs" textLength="44.8" x="236" y="226.8195">wait</text><path d="M196.8,255.725 L196.8,367.725 L320,367.725 L320,271.725 L304,255.725 L196.8,255.725 " fill="#FBFB77" filter="url(#f1b9s6n5a0l0tx)" style="stroke: #A80036; stroke-width: 1.600000023841858;"/><path d="M304,255.725 L304,271.725 L320,271.725 L304,255.725 " fill="#FBFB77" style="stroke: #A80036; stroke-width: 1.600000023841858;"/><text fill="#000000" font-family="sans-serif" font-size="20.8" lengthAdjust="spacingAndGlyphs" textLength="57.6" x="206.4" y="283.032">client</text><text fill="#000000" font-family="sans-serif" font-size="20.8" lengthAdjust="spacingAndGlyphs" textLength="56" x="206.4" y="307.2445">waits</text><text fill="#000000" font-family="sans-serif" font-size="20.8" lengthAdjust="spacingAndGlyphs" textLength="28.8" x="206.4" y="331.457">for</text><text fill="#000000" font-family="sans-serif" font-size="20.8" lengthAdjust="spacingAndGlyphs" textLength="89.6" x="206.4" y="355.6695">resource</text><polygon fill="#A80036" points="242.4,386.175,226.4,392.575,242.4,398.975,236,392.575" style="stroke: #A80036; stroke-width: 1.600000023841858;"/><line style="stroke: #A80036; stroke-width: 1.600000023841858;" x1="232.8" x2="341.6" y1="392.575" y2="392.575"/><path d="M155.2,427.775 L312,427.775 L312,438.975 L296,454.975 L155.2,454.975 L155.2,427.775 " fill="#EEEEEE" style="stroke: #000000; stroke-width: 1.600000023841858;"/><rect fill="none" height="374.7125" style="stroke: #000000; stroke-width: 3.200000047683716;" width="667.2" x="155.2" y="427.775"/><text fill="#000000" font-family="sans-serif" font-size="20.8" font-weight="bold" lengthAdjust="spacingAndGlyphs" textLength="84.8" x="179.2" y="448.682">latency</text><line style="stroke: #A80036; stroke-width: 1.600000023841858;" x1="479.2" x2="463.2" y1="488.7875" y2="482.3875"/><line style="stroke: #A80036; stroke-width: 1.600000023841858;" x1="479.2" x2="463.2" y1="488.7875" y2="495.1875"/><line style="stroke: #A80036; stroke-width: 1.600000023841858;" x1="224.8" x2="480.8" y1="488.7875" y2="488.7875"/><text fill="#000000" font-family="sans-serif" font-size="20.8" lengthAdjust="spacingAndGlyphs" textLength="78.4" x="236" y="480.8945">request</text><path d="M408,513 L624,513 L624,524.2 L608,540.2 L408,540.2 L408,513 " fill="#EEEEEE" style="stroke: #000000; stroke-width: 1.600000023841858;"/><rect fill="none" height="231.675" style="stroke: #000000; stroke-width: 3.200000047683716;" width="398.4" x="408" y="513"/><text fill="#000000" font-family="sans-serif" font-size="20.8" font-weight="bold" lengthAdjust="spacingAndGlyphs" textLength="144" x="432" y="533.907">service time</text><line style="stroke: #A80036; stroke-width: 1.600000023841858;" x1="620" x2="604" y1="574.0125" y2="567.6125"/><line style="stroke: #A80036; stroke-width: 1.600000023841858;" x1="620" x2="604" y1="574.0125" y2="580.4125"/><line style="stroke: #A80036; stroke-width: 1.600000023841858;" x1="490.4" x2="621.6" y1="574.0125" y2="574.0125"/><text fill="#000000" font-family="sans-serif" font-size="20.8" lengthAdjust="spacingAndGlyphs" textLength="78.4" x="501.6" y="566.1195">request</text><path d="M646.4,595.025 L646.4,683.025 L784,683.025 L784,611.025 L768,595.025 L646.4,595.025 " fill="#FBFB77" filter="url(#f1b9s6n5a0l0tx)" style="stroke: #A80036; stroke-width: 1.600000023841858;"/><path d="M768,595.025 L768,611.025 L784,611.025 L768,595.025 " fill="#FBFB77" style="stroke: #A80036; stroke-width: 1.600000023841858;"/><text fill="#000000" font-family="sans-serif" font-size="20.8" lengthAdjust="spacingAndGlyphs" textLength="65.6" x="656" y="622.332">server</text><text fill="#000000" font-family="sans-serif" font-size="20.8" lengthAdjust="spacingAndGlyphs" textLength="104" x="656" y="646.5445">processes</text><text fill="#000000" font-family="sans-serif" font-size="20.8" lengthAdjust="spacingAndGlyphs" textLength="78.4" x="656" y="670.757">request</text><line style="stroke: #A80036; stroke-width: 1.600000023841858;" x1="498.4" x2="514.4" y1="731.6625" y2="725.2625"/><line style="stroke: #A80036; stroke-width: 1.600000023841858;" x1="498.4" x2="514.4" y1="731.6625" y2="738.0625"/><line style="stroke: #A80036; stroke-width: 1.600000023841858;" x1="498.4" x2="629.6" y1="731.6625" y2="731.6625"/><text fill="#000000" font-family="sans-serif" font-size="20.8" lengthAdjust="spacingAndGlyphs" textLength="94.4" x="525.6" y="723.7695">response</text><line style="stroke: #A80036; stroke-width: 1.600000023841858;" x1="224.8" x2="240.8" y1="789.475" y2="783.075"/><line style="stroke: #A80036; stroke-width: 1.600000023841858;" x1="224.8" x2="240.8" y1="789.475" y2="795.875"/><line style="stroke: #A80036; stroke-width: 1.600000023841858;" x1="224.8" x2="488.8" y1="789.475" y2="789.475"/><text fill="#000000" font-family="sans-serif" font-size="20.8" lengthAdjust="spacingAndGlyphs" textLength="94.4" x="252" y="781.582">response</text><polygon fill="#A80036" points="93.6,840.8875,77.6,847.2875,93.6,853.6875,87.2,847.2875" style="stroke: #A80036; stroke-width: 1.600000023841858;"/><line style="stroke: #A80036; stroke-width: 1.600000023841858;" x1="84" x2="215.2" y1="847.2875" y2="847.2875"/><text fill="#000000" font-family="sans-serif" font-size="20.8" lengthAdjust="spacingAndGlyphs" textLength="94.4" x="103.2" y="839.3945">response</text><!--
@startuml
Participant user as u
Participant client as c
Participant resource as cr
Participant transport as t
Participant server as s

group response time
 u -> c: request
 activate c #Black
 group wait time
  c -> cr: wait
  activate cr #Yellow
  note left of cr: client\nwaits\nfor\nresource
  cr -> c:
  deactivate cr
 end

 group latency
 c ->> t: request
 activate t #Red
  group service time
   t ->> s: request
   deactivate t
   activate s #Blue
   note right of s: server\nprocesses\nrequest
   s ->> t: response
   deactivate s
   activate t #Red
  end
  t ->> c: response
  deactivate t
 end
 c -> u: response
 deactivate c
end

@enduml

PlantUML version 1.2018.01(Sun Jan 28 12:08:22 CST 2018)
(GPL source distribution)
Java Runtime: OpenJDK Runtime Environment
JVM: OpenJDK 64-Bit Server VM
Java Version: 1.8.0_152-release-1248-b8
Operating System: Linux
OS Version: 4.15.0-33-generic
Default Encoding: UTF-8
Language: en
Country: US
--></g></svg>